<svg xmlns="http://www.w3.org/2000/svg" fill="#fff" viewBox="260 -20 100 650" width="520" height="520"><title>Digitální web</title><path d="M202.67,332.82a90.9,90.9,0,0,0-22,2.7l-28.11-56.06a90.94,90.94,0,1,0-35.73,18l28.11,56.06a91.16,91.16,0,1,0,57.75-20.67ZM43.57,208.9a51.22,51.22,0,1,1,51.22,51.23A51.28,51.28,0,0,1,43.57,208.9Zm159.1,266.37a51.23,51.23,0,1,1,51.22-51.22A51.28,51.28,0,0,1,202.67,475.27Z"/><path d="M419.15,332.82a90.91,90.91,0,0,0-22.64,2.85l-28.18-56.21a91,91,0,1,0-35.74,18l28.31,56.46a91.18,91.18,0,1,0,58.25-21.07ZM259.35,208.9a51.23,51.23,0,1,1,51.23,51.23A51.28,51.28,0,0,1,259.35,208.9Zm159.8,266.37a51.23,51.23,0,1,1,51.22-51.22A51.28,51.28,0,0,1,419.15,475.27Z"/><path d="M526.57,117.68a91.23,91.23,0,1,0,91.22,91.22A91.32,91.32,0,0,0,526.57,117.68Zm0,142.45a51.23,51.23,0,1,1,51.22-51.23A51.28,51.28,0,0,1,526.57,260.13Z"/></svg>
