<?xml version="1.0" encoding="UTF-8" standalone="no"?>
<!DOCTYPE svg PUBLIC "-//W3C//DTD SVG 1.1//EN" "http://www.w3.org/Graphics/SVG/1.1/DTD/svg11.dtd">
<svg width="100%" height="100%" viewBox="0 0 520 520" version="1.1" xmlns="http://www.w3.org/2000/svg" xmlns:xlink="http://www.w3.org/1999/xlink" xml:space="preserve" xmlns:serif="http://www.serif.com/" style="fill-rule:evenodd;clip-rule:evenodd;stroke-linejoin:round;stroke-miterlimit:2;">
    <g transform="matrix(0.8,0,0,0.8,10.857767,-12.617583)">
        <path d="M526.57,260.13C526.567,260.13 526.563,260.13 526.56,260.13C498.456,260.13 475.33,237.004 475.33,208.9C475.33,180.796 498.456,157.67 526.56,157.67C554.664,157.67 577.79,180.796 577.79,208.9C577.763,236.99 554.66,260.097 526.57,260.13Z" style="fill:rgb(7,7,7);fill-rule:nonzero;"/>
    </g>
    <g transform="matrix(0.8,0,0,0.8,-155.619414,-12.617583)">
        <path d="M611.641,176.231L612.113,176.058L709.501,442.432L709.163,442.556C712.506,451.987 714.333,462.109 714.345,472.624L714.345,472.634C714.345,522.681 673.162,563.864 623.115,563.864C581.726,563.864 546.4,535.698 535.415,497.646L443.842,247.176C438.385,235.514 435.33,222.541 435.33,208.91C435.33,158.863 476.513,117.68 526.56,117.68L526.57,117.68C565.103,117.722 598.369,142.148 611.641,176.231ZM526.57,260.13C554.66,260.097 577.763,236.99 577.79,208.9C577.79,180.796 554.664,157.67 526.56,157.67C498.456,157.67 475.33,180.796 475.33,208.9C475.33,237.004 498.456,260.13 526.56,260.13L526.57,260.13ZM623.901,533.079C651.991,533.046 675.093,509.939 675.121,481.849C675.121,453.745 651.995,430.619 623.891,430.619C595.787,430.619 572.661,453.745 572.661,481.849C572.661,509.953 595.787,533.079 623.891,533.079L623.901,533.079Z" style="fill:rgb(7,7,7);"/>
    </g>
    <g transform="matrix(0.8,0,0,0.8,-333.353768,-12.617583)">
        <path d="M611.641,176.231L612.113,176.058L709.501,442.432L709.163,442.556C712.506,451.987 714.333,462.109 714.345,472.624L714.345,472.634C714.345,522.681 673.162,563.864 623.115,563.864C581.726,563.864 546.4,535.698 535.415,497.646L443.842,247.176C438.385,235.514 435.33,222.541 435.33,208.91C435.33,158.863 476.513,117.68 526.56,117.68L526.57,117.68C565.103,117.722 598.369,142.148 611.641,176.231ZM526.57,260.13C554.66,260.097 577.763,236.99 577.79,208.9C577.79,180.796 554.664,157.67 526.56,157.67C498.456,157.67 475.33,180.796 475.33,208.9C475.33,237.004 498.456,260.13 526.56,260.13L526.57,260.13ZM623.901,533.079C651.991,533.046 675.093,509.939 675.121,481.849C675.121,453.745 651.995,430.619 623.891,430.619C595.787,430.619 572.661,453.745 572.661,481.849C572.661,509.953 595.787,533.079 623.891,533.079L623.901,533.079Z" style="fill:rgb(7,7,7);"/>
    </g>
</svg>
